<svg width="102" height="29" viewBox="0 0 102 29" fill="none" xmlns="http://www.w3.org/2000/svg">
<path d="M0.88 28V27.6L1.72 27.28C2.28 27.0667 2.62667 26.8133 2.76 26.52C2.92 26.2 3 25.7733 3 25.24V4.36C3 3.82667 2.92 3.4 2.76 3.08C2.6 2.76 2.25333 2.50667 1.72 2.32L0.88 2V1.6H11.08V2L10.36 2.32C9.85333 2.50667 9.50667 2.77333 9.32 3.12C9.13333 3.44 9.04 3.86667 9.04 4.4V27.2H15.2C16.1867 27.2 16.9067 26.96 17.36 26.48C17.84 26 18.2933 25.3067 18.72 24.4L20.28 21.04H20.68L20.32 28H0.88ZM34.4547 28.72C32.828 28.72 31.2547 28.4267 29.7347 27.84C28.2414 27.2533 26.8947 26.3867 25.6947 25.24C24.5214 24.0667 23.588 22.6133 22.8947 20.88C22.2014 19.1467 21.8547 17.12 21.8547 14.8C21.8547 12.5067 22.2014 10.4933 22.8947 8.76C23.588 7.02667 24.5347 5.58667 25.7347 4.44C26.9347 3.26667 28.2814 2.38667 29.7747 1.8C31.2947 1.18667 32.8547 0.879999 34.4547 0.879999C36.0814 0.879999 37.6414 1.17333 39.1347 1.76C40.6547 2.32 42.0014 3.18667 43.1747 4.36C44.3747 5.50667 45.3214 6.96 46.0147 8.72C46.708 10.4533 47.0547 12.48 47.0547 14.8C47.0547 17.0667 46.708 19.08 46.0147 20.84C45.3214 22.5733 44.3747 24.0267 43.1747 25.2C42.0014 26.3467 40.6547 27.2267 39.1347 27.84C37.6414 28.4267 36.0814 28.72 34.4547 28.72ZM34.4547 27.88C35.9214 27.88 37.108 27.4933 38.0147 26.72C38.9214 25.92 39.5747 24.5733 39.9747 22.68C40.4014 20.76 40.6147 18.1333 40.6147 14.8C40.6147 11.44 40.4014 8.81333 39.9747 6.92C39.5747 5 38.9214 3.65333 38.0147 2.88C37.108 2.08 35.9214 1.68 34.4547 1.68C33.0147 1.68 31.8414 2.08 30.9347 2.88C30.028 3.65333 29.3614 5 28.9347 6.92C28.5347 8.81333 28.3347 11.44 28.3347 14.8C28.3347 18.1333 28.5347 20.76 28.9347 22.68C29.3614 24.5733 30.028 25.92 30.9347 26.72C31.8414 27.4933 33.0147 27.88 34.4547 27.88ZM63.0366 28.72C60.3166 28.72 57.9166 28.16 55.8366 27.04C53.7832 25.8933 52.1699 24.28 50.9966 22.2C49.8499 20.0933 49.2766 17.6133 49.2766 14.76C49.2766 11.9867 49.8499 9.56 50.9966 7.48C52.1432 5.4 53.7966 3.78667 55.9566 2.64C58.1432 1.46667 60.7832 0.879999 63.8766 0.879999C65.2899 0.879999 66.5966 1.04 67.7966 1.36C69.0232 1.68 70.1832 2.14666 71.2766 2.76L71.4366 8.36H71.0366L68.7966 4.2C68.4499 3.53333 68.1299 3.05333 67.8366 2.76C67.5432 2.46667 67.1699 2.24 66.7166 2.08C66.2899 1.94667 65.8899 1.85333 65.5166 1.8C65.1699 1.72 64.7032 1.68 64.1166 1.68C62.4632 1.68 60.9966 2.12 59.7166 3C58.4632 3.88 57.4899 5.28 56.7966 7.2C56.1032 9.12 55.7566 11.64 55.7566 14.76C55.7566 17.8533 56.0766 20.3733 56.7166 22.32C57.3832 24.2667 58.3166 25.6933 59.5166 26.6C60.7166 27.48 62.1032 27.92 63.6766 27.92C63.9166 27.92 64.1432 27.9067 64.3566 27.88C64.5966 27.8267 64.8232 27.7733 65.0366 27.72C65.5432 27.64 65.8766 27.4267 66.0366 27.08C66.1966 26.7333 66.2766 26.32 66.2766 25.84V17.92C66.2766 16.88 65.7432 16.24 64.6766 16L62.8366 15.52V15.12H74.1166V15.52L73.5566 15.68C72.5432 16 72.0366 16.6667 72.0366 17.68V26.36C70.6499 27.1333 69.2366 27.72 67.7966 28.12C66.3832 28.52 64.7966 28.72 63.0366 28.72ZM88.5172 28.72C86.8905 28.72 85.3172 28.4267 83.7972 27.84C82.3039 27.2533 80.9572 26.3867 79.7572 25.24C78.5839 24.0667 77.6505 22.6133 76.9572 20.88C76.2639 19.1467 75.9172 17.12 75.9172 14.8C75.9172 12.5067 76.2639 10.4933 76.9572 8.76C77.6505 7.02667 78.5972 5.58667 79.7972 4.44C80.9972 3.26667 82.3439 2.38667 83.8372 1.8C85.3572 1.18667 86.9172 0.879999 88.5172 0.879999C90.1439 0.879999 91.7039 1.17333 93.1972 1.76C94.7172 2.32 96.0639 3.18667 97.2372 4.36C98.4372 5.50667 99.3839 6.96 100.077 8.72C100.771 10.4533 101.117 12.48 101.117 14.8C101.117 17.0667 100.771 19.08 100.077 20.84C99.3839 22.5733 98.4372 24.0267 97.2372 25.2C96.0639 26.3467 94.7172 27.2267 93.1972 27.84C91.7039 28.4267 90.1439 28.72 88.5172 28.72ZM88.5172 27.88C89.9839 27.88 91.1705 27.4933 92.0772 26.72C92.9839 25.92 93.6372 24.5733 94.0372 22.68C94.4639 20.76 94.6772 18.1333 94.6772 14.8C94.6772 11.44 94.4639 8.81333 94.0372 6.92C93.6372 5 92.9839 3.65333 92.0772 2.88C91.1705 2.08 89.9839 1.68 88.5172 1.68C87.0772 1.68 85.9039 2.08 84.9972 2.88C84.0905 3.65333 83.4239 5 82.9972 6.92C82.5972 8.81333 82.3972 11.44 82.3972 14.8C82.3972 18.1333 82.5972 20.76 82.9972 22.68C83.4239 24.5733 84.0905 25.92 84.9972 26.72C85.9039 27.4933 87.0772 27.88 88.5172 27.88Z" fill="white"/>
</svg>
